<?xml version="1.0" encoding="utf-8"?>
<!-- Generator: Adobe Illustrator 24.0.0, SVG Export Plug-In . SVG Version: 6.00 Build 0)  -->
<svg version="1.1" id="Layer_1" xmlns="http://www.w3.org/2000/svg" xmlns:xlink="http://www.w3.org/1999/xlink" x="0px" y="0px"
	 viewBox="0 0 512 512" style="enable-background:new 0 0 512 512;" xml:space="preserve">
<style type="text/css">
	.st0{fill:#264DE4;}
	.st1{fill:#2965F1;}
	.st2{fill:#EBEBEB;}
	.st3{fill:#FFFFFF;}
</style>
<g id="layer1" transform="translate(-193.633,-276.3622)">
	<g id="g3013" transform="translate(119,276.3622)">
		<polygon id="polygon2989" class="st0" points="511.8,101.2 478.8,470.9 330.4,512 182.5,470.9 149.5,101.2 		"/>
		<polygon id="polygon2991" class="st1" points="450.5,447.3 478.7,131.4 330.7,131.4 330.7,480.6 		"/>
		<polygon id="polygon2993" class="st2" points="225.1,268.6 229.2,313.9 330.7,313.9 330.7,268.6 		"/>
		<polygon id="polygon2995" class="st2" points="330.7,176.8 330.5,176.8 216.9,176.8 221.1,222.1 330.7,222.1 		"/>
		<polygon id="polygon2997" class="st2" points="330.7,433.5 330.7,386.3 330.5,386.4 280,372.7 276.7,336.6 252.2,336.6 
			231.2,336.6 237.6,407.8 330.4,433.6 		"/>
		<path id="path2999" d="M234.8,0.7h54.9v23h-32v23h32v23h-54.9V0.7z"/>
		<path id="path3001" d="M300.7,0.7h54.9v20h-32v4h32v45.9h-54.9v-21h32v-4h-32V0.7z"/>
		<path id="path3003" d="M366.6,0.7h54.9v20h-32v4h32v45.9h-54.9v-21h32v-4h-32V0.7z"/>
		<polygon id="polygon3005" class="st3" points="386.3,313.9 381.1,372.7 330.5,386.4 330.5,433.5 423.5,407.8 424.2,400.1 
			434.8,280.7 435.9,268.6 444.1,176.8 330.5,176.8 330.5,222.1 394.4,222.1 390.3,268.6 330.5,268.6 330.5,313.9 		"/>
	</g>
</g>
<title>HTML5 Logo</title>
</svg>
