<?xml version="1.0" encoding="utf-8"?>
<!-- Generator: Adobe Illustrator 24.0.0, SVG Export Plug-In . SVG Version: 6.00 Build 0)  -->
<svg version="1.1" id="Layer_1" xmlns="http://www.w3.org/2000/svg" xmlns:xlink="http://www.w3.org/1999/xlink" x="0px" y="0px"
	 viewBox="0 0 150 150" style="enable-background:new 0 0 150 150;" xml:space="preserve">
<style type="text/css">
	.st0{fill:none;stroke:#000000;stroke-miterlimit:10;}
</style>
<image style="overflow:visible;" width="900" height="1080" xlink:href="B69D2852.jpg"  transform="matrix(0.1531 0 0 0.1531 7.9444 -6.9222)">
</image>
<polygon class="st0" points="26,32.2 125,32.2 115.9,133.5 75.5,144.4 34.8,133 "/>
<path class="st0" d="M150.7,59.6"/>
<polygon class="st0" points="106.4,52.9 44.3,52.9 45.4,65 69.8,65.3 46.4,76.7 47.7,90.5 90.5,90.5 89.2,106.4 75.5,110.1 
	61.5,106.4 60.6,96.3 47.7,96.4 49.9,115.7 75.3,123.3 100.7,116.1 104.1,77.5 81.3,77.8 85.4,75.4 105,65.2 "/>
<polygon points="50.7,9 63,9 63,4.1 45.3,4.1 45.3,22.7 63,22.7 63,17.9 50.5,17.9 "/>
<polygon points="83.4,4.1 65.6,4.1 65.6,15.6 78.2,15.6 78.2,18.2 65.6,18.2 65.6,22.7 83.4,22.7 83.4,11.4 70.8,11.4 70.8,9.2 
	83.4,9.2 "/>
<polygon points="103.9,4.1 86.1,4.1 86.1,15.6 98.7,15.6 98.7,18.2 86.1,18.2 86.1,22.7 103.9,22.7 103.9,11.4 91.3,11.4 91.3,9.2 
	103.9,9.2 "/>
</svg>
