<?xml version="1.0" encoding="utf-8"?>
<!-- Generator: Adobe Illustrator 24.0.0, SVG Export Plug-In . SVG Version: 6.00 Build 0)  -->
<svg version="1.1" id="Layer_1" xmlns="http://www.w3.org/2000/svg" xmlns:xlink="http://www.w3.org/1999/xlink" x="0px" y="0px"
	 viewBox="0 0 800 800" style="enable-background:new 0 0 800 800;" xml:space="preserve">
<style type="text/css">
	.st0{fill-opacity:0.702;}
</style>
<g>
	<path class="st0" d="M400,305.8c176.8,0,320.2-37.9,320.3-84.7v452.1C720.3,720,576.9,758,400,758V610.2l1.3,0l21.9,23.6
		c7,7.3,14.3,13.7,21.7,19.1c7.4,5.4,15.2,9.7,23.3,12.8c8.1,3.1,17,4.7,26.6,4.7l20.3-1.3l13-2.6v-39l-4.9,1.5l-5.5,1.2l-5.7,0.7
		l-5.2,0.2l-16-1.2l-14.4-4.4l-13.9-8.7l-14.6-14c20.4-7.3,36.4-19.9,47.8-37.8c11.5-18.1,17.2-39.7,17.2-64.8
		c0-32.2-9.4-58-28.1-77.6c-18.7-19.8-43-29.6-73.2-29.6l-11.8,0.5V305.8z M663.8,126.8h56.5v37.7c0,46.8-143.4,84.8-320.3,84.8
		v-94.2C545.7,155.1,663.8,142.4,663.8,126.8z M410.1,435.4c16.2,0,28.9,6,38,18c9.1,11.8,13.7,28.3,13.7,49.4
		c0,20.3-4.8,36.4-14.3,48c-9.4,11.5-22.2,17.2-38.6,17.2l-8.9-0.7V436.3L410.1,435.4z M672.8,607.3v-39.2h-78.4V396.2h-48.2v211
		H672.8z"/>
	<path d="M400,758c-176.9,0-320.3-38-320.3-84.8V221c0,46.8,143.4,84.8,320.3,84.8v87.5c-27.1,2.2-49.2,12.3-66.3,30.4
		c-19.3,20.4-29,47.3-29,80.6c0,14.6,2.3,28.2,6.9,40.9c4.6,12.7,11.1,23.8,19.5,33.2c8.4,9.4,18.5,16.9,30.4,22.5
		c11.6,5.5,24.5,8.4,38.6,8.9V758z M720.3,126.8h-56.5c0-15.6-118.1-28.3-263.8-28.3s-263.8,12.7-263.8,28.3
		c0,15.6,118.1,28.3,263.8,28.3v94.2c-176.9,0-320.3-38-320.3-84.8v-37.7C79.7,80,223.1,42,400,42C576.8,42,720.2,79.9,720.3,126.8z
		 M138.8,598.5c7.7,3.8,16.8,6.7,27.3,8.6c10.5,1.9,21.6,2.9,33.2,2.9c11.3,0,22.1-1.1,32.3-3.2c10.2-2.2,19.2-5.7,26.9-10.6
		c7.7-4.9,13.8-11.4,18.3-19.3c4.5-7.9,6.7-17.8,6.7-29.5c0-8.5-1.3-15.9-3.8-22.3c-2.5-6.4-6.1-12.1-10.9-17.1
		c-4.7-5-10.4-9.4-17.1-13.4l-22.4-11.2l-16.4-7.4l-12.3-7.3l-7.8-7.9c-1.8-2.8-2.8-5.9-2.8-9.4c0-3.4,0.8-6.4,2.5-9.1l7-7l11-4.5
		l14.5-1.6l12.3,0.9l13,2.8l12.7,4.8l11.4,6.6v-43.3c-7.2-2.7-15-4.7-23.5-6l-29.2-2c-11.2,0-21.8,1.2-31.8,3.6
		c-10,2.4-18.8,6.1-26.5,11.2c-7.6,5.1-13.6,11.6-18,19.4c-4.4,7.9-6.6,17.2-6.6,28.2c0,13.9,4,25.8,12,35.7
		c8,9.9,20.1,18.2,36.4,25l17.8,7.8l14.3,7.9l9.5,8.9c2.3,3.2,3.5,6.9,3.5,11l-2.2,8.8c-1.5,2.7-3.7,5-6.7,7l-11.1,4.7l-15.6,1.7
		c-10.1,0-20.2-1.8-30.1-5.3c-10-3.5-19.2-8.8-27.7-15.8V598.5z M370.5,453.4c7.8-9.7,17.6-15.5,29.5-17.5v131.2
		c-11.9-1.8-21.8-7.5-29.7-17.1c-9.6-11.9-14.4-28-14.4-48.3C355.9,481.6,360.8,465.5,370.5,453.4z"/>
</g>
</svg>
