<?xml version="1.0" encoding="utf-8"?>
<!-- Generator: Adobe Illustrator 24.0.0, SVG Export Plug-In . SVG Version: 6.00 Build 0)  -->
<svg version="1.1" id="Layer_1" xmlns="http://www.w3.org/2000/svg" xmlns:xlink="http://www.w3.org/1999/xlink" x="0px" y="0px"
	 viewBox="0 0 40 40" style="enable-background:new 0 0 40 40;" xml:space="preserve">
<style type="text/css">
	.st0{fill:#1D1D1B;}
</style>
<g>
	<path class="st0" d="M34.6,22H5.4c-1.7,0-3-0.9-3-2s1.3-2,3-2h29.2c1.7,0,3,0.9,3,2C37.6,21.1,36.2,22,34.6,22z"/>
</g>
<g>
	<path class="st0" d="M34.6,12H5.4c-1.7,0-3-0.9-3-2s1.3-2,3-2h29.2c1.7,0,3,0.9,3,2C37.6,11.1,36.2,12,34.6,12z"/>
</g>
<g>
	<path class="st0" d="M34.6,32H5.4c-1.7,0-3-0.9-3-2s1.3-2,3-2h29.2c1.7,0,3,0.9,3,2C37.6,31.1,36.2,32,34.6,32z"/>
</g>
</svg>
