<?xml version="1.0" encoding="utf-8"?>
<!-- Generator: Adobe Illustrator 24.0.0, SVG Export Plug-In . SVG Version: 6.00 Build 0)  -->
<svg version="1.1" id="Layer_1" xmlns="http://www.w3.org/2000/svg" xmlns:xlink="http://www.w3.org/1999/xlink" x="0px" y="0px"
	 viewBox="0 0 40 40" style="enable-background:new 0 0 40 40;" xml:space="preserve">
<style type="text/css">
	.st0{fill:#1D1D1B;}
</style>
<g>
	<path class="st0" d="M34.6,23H5.4c-1.7,0-3-1.3-3-3c0-1.7,1.3-3,3-3h29.2c1.7,0,3,1.3,3,3C37.6,21.7,36.2,23,34.6,23z"/>
</g>
<g>
	<path class="st0" d="M34.6,13H5.4c-1.7,0-3-1.3-3-3c0-1.7,1.3-3,3-3h29.2c1.7,0,3,1.3,3,3C37.6,11.7,36.2,13,34.6,13z"/>
</g>
<g>
	<path class="st0" d="M34.6,33H5.4c-1.7,0-3-1.3-3-3c0-1.7,1.3-3,3-3h29.2c1.7,0,3,1.3,3,3C37.6,31.7,36.2,33,34.6,33z"/>
</g>
</svg>
