<?xml version="1.0" encoding="utf-8"?>
<!-- Generator: Adobe Illustrator 24.0.0, SVG Export Plug-In . SVG Version: 6.00 Build 0)  -->
<svg version="1.1" id="Layer_1" xmlns="http://www.w3.org/2000/svg" xmlns:xlink="http://www.w3.org/1999/xlink" x="0px" y="0px"
	 viewBox="0 0 150 150" style="enable-background:new 0 0 150 150;" xml:space="preserve">
<style type="text/css">
	.st0{fill:none;stroke:#000000;stroke-miterlimit:10;}
</style>
<image style="overflow:visible;" width="820" height="802" xlink:href="다운로드.png"  transform="matrix(0.182 0 0 0.182 0.3995 2.037)">
</image>
<polygon class="st0" points="26,32.2 125,32.2 115.9,133.5 75.5,144.4 34.8,133 "/>
<path class="st0" d="M150.7,59.6"/>
<polygon points="35.1,5.2 35.1,23.4 41.2,23.4 41.2,17.3 47.1,17.3 47.1,23.4 53.5,23.4 53.5,4.6 47.1,4.6 47.1,11.1 41.5,11.1 
	41.5,4.6 35.1,4.6 "/>
<polygon points="56.3,4.6 56.3,10.8 61.5,10.8 61.5,23.4 68,23.4 68,10.8 73.5,10.8 73.5,4.6 "/>
<polygon points="76.3,4.6 76.3,23.4 82.4,23.4 82.4,14 86.7,20.8 91.2,14 91.2,23.4 97.6,23.4 97.6,4.6 90.8,4.6 86.9,11.3 
	82.9,4.6 "/>
<polygon points="100.7,4.6 100.7,23.4 115.9,23.4 115.9,17.4 107,17.4 107,4.6 "/>
<polygon class="st0" points="106.4,52.9 44.3,52.9 47.7,90.5 90.5,90.5 89.2,106.4 75.5,110.1 61.5,106.4 60.6,96.3 47.7,96.4 
	49.9,115.7 75.3,123.3 100.7,116.1 104.1,77.5 59.1,78.1 57.9,65.2 105,65.2 "/>
</svg>
