<?xml version="1.0" encoding="utf-8"?>
<!-- Generator: Adobe Illustrator 24.0.0, SVG Export Plug-In . SVG Version: 6.00 Build 0)  -->
<svg version="1.1" id="Layer_1" xmlns="http://www.w3.org/2000/svg" xmlns:xlink="http://www.w3.org/1999/xlink" x="0px" y="0px"
	 viewBox="0 0 40 40" style="enable-background:new 0 0 40 40;" xml:space="preserve">
<style type="text/css">
	.st0{fill:#666666;}
</style>
<g>
	<circle class="st0" cx="18.9" cy="9.7" r="7.7"/>
	<path class="st0" d="M24.1,33.8c0-4.1,3.1-7.3,7.1-7.7c-3.1-3.3-7.4-5.5-12.3-5.5C9.6,20.6,2,28.2,2,37.5h23.1
		C24.5,36.4,24.1,35.1,24.1,33.8z"/>
	<path class="st0" d="M31.8,27.6c-3.5,0-6.2,2.7-6.2,6.2s2.7,6.2,6.2,6.2s6.2-2.7,6.2-6.2S35.3,27.6,31.8,27.6z M35.3,35H33v2.2
		c0,0.7-0.5,1.2-1.2,1.2s-1.2-0.5-1.2-1.2V35h-2.2c-0.7,0-1.2-0.5-1.2-1.2s0.5-1.2,1.2-1.2h2.2v-2.2c0-0.7,0.5-1.2,1.2-1.2
		s1.2,0.5,1.2,1.2v2.2h2.2c0.7,0,1.2,0.5,1.2,1.2C36.5,34.5,35.9,35,35.3,35z"/>
</g>
</svg>
