<?xml version="1.0" encoding="utf-8"?>
<!-- Generator: Adobe Illustrator 24.0.0, SVG Export Plug-In . SVG Version: 6.00 Build 0)  -->
<svg version="1.1" id="Layer_1" xmlns="http://www.w3.org/2000/svg" xmlns:xlink="http://www.w3.org/1999/xlink" x="0px" y="0px"
	 viewBox="0 0 40 40" style="enable-background:new 0 0 40 40;" xml:space="preserve">
<style type="text/css">
	.st0{fill:#666666;}
</style>
<path class="st0" d="M32.1,18.4h-1.6v-5.7c0-5.8-4.7-10.5-10.5-10.5S9.5,6.9,9.5,12.6v5.7H7.9c-0.9,0-1.7,0.8-1.7,1.7v16.1
	c0,0.9,0.8,1.7,1.7,1.7h24.2c0.9,0,1.7-0.8,1.7-1.7v-16C33.8,19.2,33.1,18.4,32.1,18.4z M12.4,13.1C12.4,8.6,15.8,5,20,5
	s7.6,3.6,7.6,8.1v5.2H12.4V13.1z M18.8,32.2v-1.8v-1.2c-0.8-0.5-1.4-1.4-1.4-2.4c0-1.5,1.2-2.8,2.6-2.8s2.6,1.2,2.6,2.8
	c0,1.1-0.6,2-1.4,2.4v1.2v1.8c0,0.7-0.5,1.2-1.2,1.2S18.8,32.8,18.8,32.2z"/>
</svg>
