<?xml version="1.0" encoding="utf-8"?>
<!-- Generator: Adobe Illustrator 24.0.0, SVG Export Plug-In . SVG Version: 6.00 Build 0)  -->
<svg version="1.1" id="Layer_1" xmlns="http://www.w3.org/2000/svg" xmlns:xlink="http://www.w3.org/1999/xlink" x="0px" y="0px"
	 viewBox="0 0 80 80" style="enable-background:new 0 0 80 80;" xml:space="preserve">
<style type="text/css">
	.st0{opacity:0;fill:#B987BB;}
	.st1{fill:#B987BB;}
	.st2{fill:#FFFFFF;}
	.st3{fill:#693F60;}
</style>
<path class="st0" d="M73.2,20.8L39.9,1.6L6.7,20.8v38.4L40,78.4l33.3-19.2L73.2,20.8L73.2,20.8z M68.6,56.6L39.9,73.1L11.1,56.6
	V23.4L39.9,6.9l28.7,16.5C68.6,23.4,68.6,56.6,68.6,56.6z"/>
<circle class="st1" cx="40" cy="40" r="34.7"/>
<polygon class="st2" points="39.8,40 82.9,64.9 82.9,15.1 "/>
<g>
	<rect x="5.2" y="39.5" transform="matrix(0.8663 -0.4995 0.4995 0.8663 -14.6398 25.2994)" class="st2" width="69.4" height="1"/>
</g>
<path class="st1" d="M69.8,22.2l0.2,0.4l0,0C64,12.3,52.8,5.3,40,5.3C20.9,5.3,5.3,20.9,5.3,40c0,6.1,1.6,11.9,4.4,16.9L69.8,22.2z"
	/>
<path class="st3" d="M40.4,40.3L10.2,57.7c6,10.1,17.1,16.9,29.8,16.9c12.8,0,24-6.9,30-17.3L40.4,40.3z"/>
</svg>
