<?xml version="1.0" encoding="utf-8"?>
<!-- Generator: Adobe Illustrator 24.0.0, SVG Export Plug-In . SVG Version: 6.00 Build 0)  -->
<svg version="1.1" id="Layer_1" xmlns="http://www.w3.org/2000/svg" xmlns:xlink="http://www.w3.org/1999/xlink" x="0px" y="0px"
	 viewBox="0 0 80 80" style="enable-background:new 0 0 80 80;" xml:space="preserve">
<style type="text/css">
	.st0{fill:#B987BB;}
</style>
<path class="st0" d="M73.2,20.8L39.9,1.6L6.7,20.8v38.4L40,78.4l33.3-19.2L73.2,20.8L73.2,20.8z M68.6,56.6L39.9,73.1L11.1,56.6
	V23.4L39.9,6.9l28.7,16.5V56.6z"/>
<g>
	<path class="st0" d="M18.3,34.9h1.8c0,0.9-0.1,1.9-0.2,2.7c-0.1,0.9-0.4,1.7-0.7,2.4c-0.4,0.8-0.8,1.5-1.5,2.2
		c-0.6,0.7-1.5,1.3-2.4,1.9l-1-1.3c0.8-0.5,1.5-1,2-1.5c0.5-0.5,1-1.1,1.3-1.7c0.3-0.6,0.5-1.3,0.7-2c0.1-0.7,0.2-1.5,0.2-2.3V34.9z
		 M18.3,37.9v1.4l-3.9,0.4l-0.2-1.6L18.3,37.9z M14.9,34.9h4v1.5h-4V34.9z M20.8,33.6h1.8v12.4h-1.8V33.6z M22,38.4h2.2v1.5H22V38.4
		z M23.8,33.4h1.8v13.3h-1.8V33.4z"/>
	<path class="st0" d="M30.6,36.8h1.5v0.7c0,0.7-0.1,1.4-0.2,2.1c-0.2,0.7-0.4,1.3-0.7,1.9c-0.3,0.6-0.7,1.1-1.2,1.6
		c-0.5,0.5-1,0.8-1.6,1.1l-1-1.5c0.5-0.2,1-0.6,1.4-0.9c0.4-0.4,0.7-0.8,1-1.3c0.3-0.5,0.5-1,0.6-1.5c0.1-0.5,0.2-1,0.2-1.5V36.8z
		 M27.9,35.5h7.4V37h-7.4V35.5z M30.6,33.7h1.9v2.6h-1.9V33.7z M31.1,36.8h1.5v0.7c0,0.5,0.1,1,0.2,1.5c0.1,0.5,0.3,1,0.6,1.4
		c0.3,0.5,0.6,0.9,1,1.2c0.4,0.4,0.9,0.7,1.4,0.9l-1,1.5c-0.6-0.2-1.2-0.6-1.6-1c-0.5-0.5-0.9-1-1.2-1.6c-0.3-0.6-0.6-1.2-0.7-1.9
		c-0.2-0.7-0.2-1.3-0.2-2V36.8z M36.5,33.3h1.9v13.3h-1.9V33.3z"/>
	<path class="st0" d="M40.6,43.6h12v1.5h-12V43.6z M49.9,37.7v1.5l-8.1,0.4l-0.2-1.6L49.9,37.7z M41.9,34.4h8.4V36h-8.4V34.4z
		 M44.8,40.4h1.9v3.7h-1.9V40.4z M49.6,34.4h1.9v1.2c0,0.5,0,1.1,0,1.7c0,0.6-0.1,1.3-0.2,2.1c-0.1,0.8-0.2,1.6-0.4,2.6L49,41.8
		c0.3-1.4,0.5-2.5,0.5-3.5c0-1,0.1-1.9,0.1-2.7V34.4z"/>
	<path class="st0" d="M53.8,43.5h12.1V45H53.8V43.5z M55.2,34.4h9.3V36h-7.4v4.1h-1.9V34.4z M55.2,39.5h9.4V41h-9.4V39.5z"/>
</g>
</svg>
