<?xml version="1.0" encoding="utf-8"?>
<!-- Generator: Adobe Illustrator 24.0.0, SVG Export Plug-In . SVG Version: 6.00 Build 0)  -->
<svg version="1.1" id="svg388" xmlns:svg="http://www.w3.org/2000/svg"
	 xmlns="http://www.w3.org/2000/svg" xmlns:xlink="http://www.w3.org/1999/xlink" x="0px" y="0px" viewBox="0 0 200 60"
	 style="enable-background:new 0 0 200 60;" xml:space="preserve">
<style type="text/css">
	.st0{fill:#FFFFFF;}
	.st1{fill:#221B45;}
</style>
<path class="st0" d="M54.7,30l-0.5-0.5L54,29.6c0.1,0.3,0.1,0.5,0.2,0.7L54.7,30z"/>
<g>
	<path class="st1" d="M21.2,22.8l0.3-1.1l1.6,0.8c0,0-2.6,7.4-0.5,12.5l1.4-0.2c-0.5-1.6-0.8-3.4-0.8-5.1c0-8.3,5.8-15.4,13.4-17.4
		l-0.1-0.5l1.3-0.3l-0.4-2.7c0,0,6.9-1.2,12.9,1.7l0.2-1.1c-2.9-1.3-5.9-2-9.3-2C31.3,7.4,23,13.7,20,22.3L21.2,22.8z"/>
	<path class="st1" d="M45.2,50.7l-1.1,0.2L44,49.2c0,0,7.7-1.4,11-5.9l-0.9-1.2c-1.2,1.2-2.5,2.3-4.1,3.2c-7.3,4.1-16.2,2.8-21.8-3
		l-0.5,0.4l-0.7-1l-2.2,1.8c0,0-4.5-5.4-5-12l-1,0.4c0.3,3.2,1.2,6.2,2.9,9.1c5,8.5,14.6,12.6,23.6,10.8L45.2,50.7z"/>
	<path class="st1" d="M57.3,15.8l0.8,0.8l-1.4,1c0,0-5.1-5.9-10.6-6.6l-0.7,1.3c1.7,0.3,3.3,1,4.8,1.8c7.3,4.1,10.5,12.7,8.3,20.3
		l0.5,0.2l-0.5,1.3l2.6,1.1c0,0-2.5,6.6-8,10.4l0.8,0.6c2.6-1.8,4.7-4.1,6.4-7.1c5-8.6,3.7-18.9-2.2-25.9L57.3,15.8z"/>
</g>
<g>
	<path class="st1" d="M43.8,21.3l-6.9-6.9c-3.9,1.1-7.2,3.6-9.3,6.9h10H43.8z"/>
	<path class="st1" d="M32.6,27.2L25.7,34c1.1,3.9,3.6,7.2,6.9,9.3v-10C32.6,33.3,32.6,27.2,32.6,27.2z"/>
	<path class="st1" d="M49.6,32.5l6.9-6.9c-1.1-3.9-3.6-7.2-6.9-9.3v10V32.5z"/>
	<path class="st1" d="M49.6,33.5l-4.3,4.3h9.8c1.3-2.3,2.1-5,2.1-7.9c0-1.2-0.2-2.4-0.4-3.6l-7.1,7.1L49.6,33.5z"/>
	<path class="st1" d="M49,15.9c-2.3-1.3-5-2.1-7.9-2.1c-1.2,0-2.4,0.1-3.5,0.4L49,25.6V15.9L49,15.9z"/>
	<path class="st1" d="M33.2,43.7c2.3,1.3,5,2.1,7.9,2.1c1.2,0,2.4-0.1,3.5-0.4L33.2,34V43.7z"/>
	<path class="st1" d="M27.3,21.9c-1.3,2.3-2.1,5-2.1,7.9c0,1.2,0.1,2.4,0.4,3.5L37,22L27.3,21.9L27.3,21.9z"/>
	<path class="st1" d="M38.5,38.4l6.9,6.9c3.9-1.1,7.2-3.6,9.3-6.9h-10H38.5z"/>
</g>
<g>
	<path class="st1" d="M86.2,20.5c0,6.4-1.9,12.5-9.3,16.6l-1.3-1.6c3.8-2.1,6-4.7,7.2-7.6l-6.9,0.7l-0.3-1.9l7.8-0.5
		c0.3-1.2,0.5-2.5,0.6-3.8h-7.2v-1.8H86.2z M96.3,17.6v24.6h-2.1V29.4h-3.3v11.6h-2.1V18.2h2.1v9.3h3.3v-9.9H96.3z"/>
	<path class="st1" d="M108.2,25.5c0,4.1,2.8,8.1,6.5,9.7l-1.3,1.8c-2.8-1.3-5.1-3.9-6.3-7.2c-1.1,3.4-3.4,6.2-6.2,7.6l-1.3-1.7
		c3.6-1.7,6.4-5.9,6.4-10.2v-1.9h-5.7v-1.8h5.7V18h2.3v3.8h5.6v1.8h-5.6V25.5z M119.3,17.6v24.6h-2.3V17.6H119.3z"/>
	<path class="st1" d="M145.2,37v1.8H123V37h8.7v-6.4h2.2V37H145.2z M140.3,25.9c0.1-1.3,0.1-2.5,0.1-3.6v-0.5h-14.7V20h15.6l1.3,0
		v2.3c0,3,0,6.4-1,11.4l-2.2-0.3c0.5-2.2,0.7-4.1,0.9-5.8l-14.8,0.8l-0.3-1.9L140.3,25.9z"/>
	<path class="st1" d="M169.1,37v1.9h-22.3V37H169.1z M166.5,31.2h-16.9V19.8h16.6v1.9h-14.4v7.7h14.6V31.2z"/>
</g>
</svg>
