<?xml version="1.0" encoding="utf-8"?>
<!-- Generator: Adobe Illustrator 24.0.0, SVG Export Plug-In . SVG Version: 6.00 Build 0)  -->
<svg version="1.1" id="Layer_1" xmlns="http://www.w3.org/2000/svg" xmlns:xlink="http://www.w3.org/1999/xlink" x="0px" y="0px"
	 viewBox="0 0 40 40" style="enable-background:new 0 0 40 40;" xml:space="preserve">
<style type="text/css">
	.st0{fill:#666666;}
</style>
<path class="st0" d="M18.7,33.6c-1.3-1.6-3.6-3.2-5.7-4.3c-2.2-1.1-4.2-1.7-6.6-1.9c-0.5,0-0.8-0.1-0.9-0.1c0,0,0-4.8,0-10.7V5.9
	h0.4c2.6,0.3,5.5,1.3,7.8,2.6c1.9,1.2,3.9,3,5.1,4.8l0.3,0.4v10.2c0,5.6,0,10.2-0.1,10.2C19.1,34.1,18.9,33.9,18.7,33.6L18.7,33.6z
	 M20.8,23.9V13.7l0.6-0.8c0.8-1,2.3-2.6,3.4-3.4c2.8-2.1,5.8-3.2,9.2-3.6h0.4v10.7v10.7h-0.5c-4.8,0.4-9,2.4-12.2,5.8l-0.9,1
	L20.8,23.9L20.8,23.9z M23.8,33.4c1.9-1.8,4.4-3.2,6.9-3.9c1.3-0.4,3-0.6,4.2-0.6c0.6,0,0.9-0.1,1.1-0.4c0.1-0.2,0.1-0.3,0.1-9v-8.8
	h0.3c0.1,0,0.6,0.1,0.9,0.3l0.6,0.2v11c0,6,0,11-0.1,11c0,0-0.5-0.1-1-0.2c-2-0.4-3.6-0.6-5.7-0.5c-2.6,0.1-4.6,0.4-7,1.3L23.3,34
	L23.8,33.4L23.8,33.4z M15.8,33.6c-1-0.4-2.6-0.8-3.7-1c-1.5-0.2-2.5-0.3-4.4-0.3c-1.8,0-2.9,0.2-4.5,0.5c-0.4,0.1-0.9,0.2-1,0.2H2
	V22V11l0.8-0.2c0.5-0.1,0.9-0.3,0.9-0.3c0.1,0,0.1,1.8,0.1,8.8c0,9.6,0,9,0.4,9.3c0.1,0.1,0.4,0.1,1.3,0.2C8.9,29,12,30.1,14.6,32
	c0.6,0.4,1.9,1.5,2,1.7S16.7,33.9,15.8,33.6L15.8,33.6z"/>
</svg>
