<?xml version="1.0" encoding="utf-8"?>
<!-- Generator: Adobe Illustrator 24.0.0, SVG Export Plug-In . SVG Version: 6.00 Build 0)  -->
<svg version="1.1" id="Layer_1" xmlns="http://www.w3.org/2000/svg" xmlns:xlink="http://www.w3.org/1999/xlink" x="0px" y="0px"
	 viewBox="0 0 15 15" style="enable-background:new 0 0 15 15;" xml:space="preserve">
<style type="text/css">
	.st0{fill:#1D1D1B;}
	.st1{fill:#231F20;}
</style>
<g>
	<polygon class="st0" points="10.6,7.5 5.1,4.4 5.1,10.6 	"/>
	<path class="st1" d="M4.7,11.4V3.6l6.8,3.9L4.7,11.4z M5.6,5.1v4.7l4.1-2.4L5.6,5.1z"/>
</g>
<g>
	<path class="st1" d="M7.5,14.9c-4.1,0-7.4-3.3-7.4-7.4s3.3-7.4,7.4-7.4s7.4,3.3,7.4,7.4S11.6,14.9,7.5,14.9z M7.5,1.1
		C4,1.1,1.1,4,1.1,7.5s2.9,6.4,6.4,6.4s6.4-2.9,6.4-6.4S11,1.1,7.5,1.1z"/>
</g>
</svg>
