<?xml version="1.0" encoding="utf-8"?>
<!-- Generator: Adobe Illustrator 24.0.0, SVG Export Plug-In . SVG Version: 6.00 Build 0)  -->
<svg version="1.1" id="Layer_1" xmlns="http://www.w3.org/2000/svg" xmlns:xlink="http://www.w3.org/1999/xlink" x="0px" y="0px"
	 viewBox="0 0 40 40" style="enable-background:new 0 0 40 40;" xml:space="preserve">
<style type="text/css">
	.st0{fill:#FFFFFF;}
</style>
<g>
	<path class="st0" d="M20,39.7C9.1,39.7,0.3,30.9,0.3,20S9.1,0.3,20,0.3S39.7,9.1,39.7,20S30.9,39.7,20,39.7z M20,3.3
		C10.8,3.3,3.3,10.8,3.3,20S10.8,36.7,20,36.7S36.7,29.2,36.7,20S29.2,3.3,20,3.3z"/>
</g>
<path class="st0" d="M31.3,18.5h-9.8V8.7c0-0.8-0.7-1.5-1.5-1.5s-1.5,0.7-1.5,1.5v9.8H8.7c-0.8,0-1.5,0.7-1.5,1.5s0.7,1.5,1.5,1.5
	h9.8v9.8c0,0.8,0.7,1.5,1.5,1.5s1.5-0.7,1.5-1.5v-9.8h9.8c0.8,0,1.5-0.7,1.5-1.5S32.1,18.5,31.3,18.5z"/>
</svg>
