<?xml version="1.0" encoding="utf-8"?>
<!-- Generator: Adobe Illustrator 24.0.0, SVG Export Plug-In . SVG Version: 6.00 Build 0)  -->
<svg version="1.1" id="Layer_1" xmlns="http://www.w3.org/2000/svg" xmlns:xlink="http://www.w3.org/1999/xlink" x="0px" y="0px"
	 viewBox="0 0 70 70" style="enable-background:new 0 0 70 70;" xml:space="preserve">
<style type="text/css">
	.st0{fill:#EEEEEE;}
</style>
<rect class="st0" width="70" height="70"/>
<g>
	<path d="M35.4,44.8c-8.9,0-16.2-7.3-16.2-16.2c0-8.9,7.3-16.2,16.2-16.2s16.2,7.3,16.2,16.2C51.7,37.5,44.4,44.8,35.4,44.8z
		 M35.4,14.3c-7.8,0-14.2,6.4-14.2,14.2s6.4,14.2,14.2,14.2c7.8,0,14.2-6.4,14.2-14.2S43.3,14.3,35.4,14.3z"/>
</g>
<g>
	<path d="M59.3,70h-2c0-11.7-9.6-25.3-21.9-25.3S13.6,58.3,13.6,70h-2c0-12.6,10.4-27.2,23.9-27.2C48.9,42.8,59.3,57.4,59.3,70z"/>
</g>
</svg>
