<?xml version="1.0" encoding="utf-8"?>
<!-- Generator: Adobe Illustrator 24.0.0, SVG Export Plug-In . SVG Version: 6.00 Build 0)  -->
<svg version="1.1" id="Layer_1" xmlns="http://www.w3.org/2000/svg" xmlns:xlink="http://www.w3.org/1999/xlink" x="0px" y="0px"
	 viewBox="0 0 40 40" style="enable-background:new 0 0 40 40;" xml:space="preserve">
<style type="text/css">
	.st0{fill:#FFFFFF;stroke:#000000;stroke-width:2;stroke-miterlimit:10;}
</style>
<g>
	<path d="M34.3,21.5H5.7C4.8,21.5,4,20.8,4,20s0.8-1.5,1.7-1.5h28.5c0.9,0,1.7,0.7,1.7,1.5S35.2,21.5,34.3,21.5z"/>
</g>
<g>
	<path d="M34.3,11.5H5.7C4.8,11.5,4,10.8,4,10s0.8-1.5,1.7-1.5h28.5c0.9,0,1.7,0.7,1.7,1.5S35.2,11.5,34.3,11.5z"/>
</g>
<g>
	<path d="M34.3,31.5H5.7C4.8,31.5,4,30.8,4,30s0.8-1.5,1.7-1.5h28.5c0.9,0,1.7,0.7,1.7,1.5S35.2,31.5,34.3,31.5z"/>
</g>
<circle class="st0" cx="12.9" cy="9.8" r="3.9"/>
<circle class="st0" cx="13.9" cy="29.3" r="3.9"/>
<circle class="st0" cx="28.5" cy="19.7" r="3.9"/>
</svg>
