<?xml version="1.0" encoding="utf-8"?>
<!-- Generator: Adobe Illustrator 24.0.0, SVG Export Plug-In . SVG Version: 6.00 Build 0)  -->
<svg version="1.1" id="Layer_1" xmlns="http://www.w3.org/2000/svg" xmlns:xlink="http://www.w3.org/1999/xlink" x="0px" y="0px"
	 viewBox="0 0 40 40" style="enable-background:new 0 0 40 40;" xml:space="preserve">
<style type="text/css">
	.st0{fill:#FFFFFF;}
</style>
<path id="패스_78_1_" class="st0" d="M35,33.9c-0.7,0.7-1.7,0.7-2.4,0l0,0l-4.4-4.4c-6.3,5-15.5,4-20.5-2.3S3.7,11.8,10,6.8
	s15.5-4,20.5,2.3c4.2,5.3,4.3,12.7,0.1,18.1l4.4,4.4C35.7,32.1,35.7,33.2,35,33.9z M19.3,7.4c-6,0-10.8,4.8-10.8,10.8
	S13.4,29,19.3,29s10.8-4.8,10.8-10.8l0,0C30.1,12.3,25.3,7.4,19.3,7.4C19.4,7.4,19.3,7.4,19.3,7.4z"/>
</svg>
