<?xml version="1.0" encoding="utf-8"?>
<!-- Generator: Adobe Illustrator 24.0.0, SVG Export Plug-In . SVG Version: 6.00 Build 0)  -->
<svg version="1.1" id="Layer_1" xmlns="http://www.w3.org/2000/svg" xmlns:xlink="http://www.w3.org/1999/xlink" x="0px" y="0px"
	 viewBox="0 0 40 40" style="enable-background:new 0 0 40 40;" xml:space="preserve">
<style type="text/css">
	.st0{opacity:0.97;fill:#666666;enable-background:new    ;}
</style>
<path class="st0" d="M34.7,15.3C33.4,8.3,27.3,3,20,3S6.6,8.3,5.3,15.3c-2.2,0.3-3.9,2.2-3.9,4.5v4.7c0,2.1,1.4,3.8,3.3,4.4
	c0,0,0,0.1,0.1,0.1c2.9,3.5,6.6,5.5,11,5.9c0.2,1.2,1.3,2.1,2.6,2.1c1.4,0,2.6-1.2,2.6-2.6s-1.2-2.6-2.6-2.6c-1.2,0-2.2,0.8-2.5,1.8
	c-3.7-0.4-6.8-2-9.4-4.7h0.4c1.2,0,2.2-1,2.2-2.2v-9.4c0-1.2-1-2.2-2.2-2.2H6.6C7.8,9,13.4,4.2,20,4.2s12.2,4.7,13.4,11H33
	c-1.2,0-2.2,1-2.2,2.2v9.4c0,1.2,1,2.2,2.2,2.2h1c2.5,0,4.5-2,4.5-4.5v-4.7C38.6,17.5,36.9,15.6,34.7,15.3z M18.4,33
	c0.8,0,1.4,0.6,1.4,1.4c0,0.8-0.6,1.4-1.4,1.4S17,35.2,17,34.4S17.6,33,18.4,33z"/>
</svg>
